<svg xmlns="http://www.w3.org/2000/svg" viewBox="0 7.349999904632568 65 47.20000076293945" data-asc="0.968" width="65" height="47.20000076293945"><defs/><g><g fill="#f08771"><g transform="translate(0, 0)"><path d="M20.85 21.05L20.85 24.05L2.70 32.05L20.85 40.10L20.85 43.10L0 33.80L0 30.35L20.85 21.05ZM37.75 7.35L41.15 7.35L25.55 54.55L22.15 54.55L37.75 7.35ZM53.15 28.35Q58.50 28.60 61.75 31.02Q65 33.45 65 37.70Q65 40.90 63.35 43.38Q61.70 45.85 58.70 47.23Q55.70 48.60 51.50 48.60Q48.20 48.60 44.97 47.65Q41.75 46.70 39.45 45.15L41.20 42.10Q43.25 43.60 45.90 44.48Q48.55 45.35 51.30 45.35Q54.40 45.35 56.58 44.40Q58.75 43.45 59.92 41.75Q61.10 40.05 61.10 37.85Q61.10 34.45 58.47 32.70Q55.85 30.95 51.15 30.95L46.55 30.95L46.55 28.45L59.40 15.50L59.95 16.85L41.10 16.85L41.10 13.40L63.20 13.40L63.20 15.90L49.75 29.50L49.20 28.15L53.15 28.35Z"/></g></g></g></svg>